<svg xmlns="http://www.w3.org/2000/svg" width="398.312" height="512" viewBox="0 0 398.312 512">
  <g id="delete" transform="translate(0)">
    <path id="Path_25" data-name="Path 25" d="M156.371,30.906h85.57V45.3h30.9V28.891A28.91,28.91,0,0,0,243.973,0H154.34a28.916,28.916,0,0,0-28.875,28.891V45.3h30.906Zm0,0" fill="#fff"/>
    <path id="Path_26" data-name="Path 26" d="M344.211,167.75H54.1a13.609,13.609,0,0,0-13.566,14.707L64.789,482.363A32.211,32.211,0,0,0,96.883,512H301.426a32.211,32.211,0,0,0,32.094-29.641l24.254-299.9a13.6,13.6,0,0,0-13.562-14.707ZM124.348,480.012c-.324.02-.648.031-.969.031a15.45,15.45,0,0,1-15.406-14.5l-15.2-246.207a15.453,15.453,0,0,1,30.848-1.9l15.2,246.207a15.451,15.451,0,0,1-14.469,16.375Zm90.434-15.422a15.453,15.453,0,0,1-30.906,0V218.379a15.453,15.453,0,0,1,30.906,0Zm90.758-245.3L291.028,465.5a15.449,15.449,0,0,1-15.41,14.543c-.3,0-.613-.008-.922-.023A15.452,15.452,0,0,1,260.18,463.68l14.508-246.211a15.453,15.453,0,0,1,30.852,1.82Zm0,0" fill="#fff"/>
    <path id="Path_27" data-name="Path 27" d="M397.648,120.063,387.5,89.641a19.651,19.651,0,0,0-18.641-13.43H29.449a19.646,19.646,0,0,0-18.637,13.43L.664,120.063a12.765,12.765,0,0,0,12.094,16.781h372.8a12.582,12.582,0,0,0,6.75-1.949,12.728,12.728,0,0,0,5.344-14.832Zm0,0" fill="#fff"/>
  </g>
</svg>
