<svg xmlns="http://www.w3.org/2000/svg" width="612.001" height="464.268" viewBox="0 0 612.001 464.268">
  <g id="delivery-truck-with-circular-clock" transform="translate(0 -73.866)">
    <path id="Path_21" data-name="Path 21" d="M604.131,440.17h-19.12V333.237a63,63,0,0,0-10.78-35.173l-47.92-70.975a62.989,62.989,0,0,0-52.169-27.7h-74.28a15.733,15.733,0,0,0-15.737,15.738V440.172H262.475a64.638,64.638,0,0,1,21.8,39.658H412.53a64.591,64.591,0,0,1,127.867,0h63.735A7.892,7.892,0,0,0,612,471.961V448.04A7.894,7.894,0,0,0,604.131,440.17ZM525.76,312.227H427.716a7.842,7.842,0,0,1-7.868-7.869V249.986a7.892,7.892,0,0,1,7.868-7.869H487.44a7.975,7.975,0,0,1,6.452,3.3l38.32,54.451A7.861,7.861,0,0,1,525.76,312.227ZM476.5,440.17a48.982,48.982,0,1,0,48.943,49.021A48.962,48.962,0,0,0,476.5,440.17Zm0,73.495a24.472,24.472,0,1,1,24.472-24.471A24.5,24.5,0,0,1,476.5,513.665ZM68.434,440.17a7.893,7.893,0,0,0-7.869,7.869v23.922a7.892,7.892,0,0,0,7.869,7.869H156.4a64.919,64.919,0,0,1,21.718-39.658H68.434Zm151.864,0a48.982,48.982,0,1,0,48.943,49.021A49.012,49.012,0,0,0,220.3,440.17Zm0,73.495a24.472,24.472,0,1,1,24.472-24.471A24.5,24.5,0,0,1,220.3,513.665ZM338.014,150.6h-91.2a132.1,132.1,0,0,1,6.846,42.255c0,74.28-60.431,134.711-134.711,134.711a136.09,136.09,0,0,1-39.029-5.744v86.949a7.892,7.892,0,0,0,7.869,7.869h265.96a7.891,7.891,0,0,0,7.869-7.869V174.211A23.576,23.576,0,0,0,338.014,150.6ZM118.969,73.866a118.969,118.969,0,1,0,118.97,118.968A118.968,118.968,0,0,0,118.969,73.866Zm0,210.864a91.9,91.9,0,1,1,91.9-91.9A91.9,91.9,0,0,1,118.969,284.73Zm35.1-72.488a11.913,11.913,0,0,1-3.082-.407L112.641,201.5a11.808,11.808,0,0,1-8.729-11.4V131.089a11.8,11.8,0,0,1,23.606,0V181.06l29.614,7.983a11.8,11.8,0,0,1-3.066,23.2Z" fill="#fff"/>
  </g>
</svg>
